<svg width="50" height="50" viewBox="0 0 50 50" fill="none" xmlns="http://www.w3.org/2000/svg">
<path fill-rule="evenodd" clip-rule="evenodd" d="M25.8928 26.7857V35.7142C29.0348 35.4321 30.3571 33.6723 30.3571 31.3482C30.3571 29.1098 29.3286 27.7857 25.8928 26.7857ZM23.2143 22.3214V14.2857C20.292 14.6562 18.75 16.366 18.75 18.241C18.75 20.116 19.9678 21.4973 23.2143 22.3214ZM25.75 22.9794L26.7071 23.2267C31.95 24.4848 34.8214 26.7116 34.8214 31.1035C34.8214 36.1553 30.8339 39.0214 25.75 39.3928V42.8571H23.4973V39.3928C18.433 39.0009 14.4259 36.0526 14.2857 31.1035H18.4125C18.7714 33.516 20.2875 35.2892 23.4973 35.6392V26.6509L22.6795 26.4446C17.6152 25.2276 14.8839 22.8767 14.8839 18.691C14.8839 14.0723 18.4732 11.0205 23.4973 10.6285V7.14282H25.75V10.6276C30.7339 11.0401 34.3428 14.133 34.5027 18.8142H30.3553C30.0964 16.216 28.3018 14.7107 25.75 14.3803V22.9794Z" fill="black"/>
</svg>
