<svg width="34" height="30" viewBox="0 0 34 30" fill="none" xmlns="http://www.w3.org/2000/svg">
<path d="M3.23665 25.9248C5.23665 28.3332 8.95665 28.3332 16.4 28.3332H17.6C25.0433 28.3332 28.765 28.3332 30.765 25.9248M3.23665 25.9248C1.23665 23.5148 1.92331 19.8582 3.29498 12.5415C4.26998 7.3415 4.75665 4.73984 6.60831 3.20317M30.765 25.9248C32.765 23.5148 32.0783 19.8582 30.7066 12.5415C29.7316 7.3415 29.2433 4.73984 27.3916 3.20317M27.3916 3.20317C25.5416 1.6665 22.8933 1.6665 17.6016 1.6665H16.3983C11.1066 1.6665 8.45998 1.6665 6.60831 3.20317" stroke="#1D1D1D" stroke-width="3"/>
<path d="M12.2833 8.33301C12.6277 9.3089 13.2662 10.154 14.111 10.7517C14.9558 11.3494 15.9651 11.6704 17 11.6704C18.0348 11.6704 19.0442 11.3494 19.889 10.7517C20.7338 10.154 21.3723 9.3089 21.7167 8.33301" stroke="#1D1D1D" stroke-width="3" stroke-linecap="round"/>
</svg>
