<svg width="30" height="30" viewBox="0 0 30 30" fill="none" xmlns="http://www.w3.org/2000/svg">
<path fill-rule="evenodd" clip-rule="evenodd" d="M9.13359 1.5625C8.13234 1.5625 7.44609 1.5625 6.83359 1.72875C6.19967 1.90273 5.60944 2.20809 5.10121 2.62501C4.59299 3.04193 4.17813 3.56108 3.88359 4.14875C3.59984 4.71375 3.46609 5.3875 3.26984 6.37L2.49484 10.2425C2.35759 10.9214 2.37085 11.622 2.53369 12.2952C2.69653 12.9684 3.00499 13.5977 3.43734 14.1388V17.57C3.43734 19.8675 3.43734 21.6875 3.62859 23.1112C3.82609 24.5763 4.24109 25.7625 5.17609 26.6987C6.11109 27.6337 7.29734 28.0487 8.76359 28.2463C10.1873 28.4375 12.0073 28.4375 14.3036 28.4375H15.6948C17.9923 28.4375 19.8123 28.4375 21.2361 28.2463C22.7011 28.0487 23.8873 27.6337 24.8236 26.6987C25.7586 25.7625 26.1736 24.5763 26.3711 23.1112C26.5623 21.6863 26.5623 19.8675 26.5623 17.57V14.14C26.9947 13.5987 27.303 12.9691 27.4656 12.2957C27.6282 11.6223 27.6412 10.9215 27.5036 10.2425L26.7286 6.37C26.5336 5.3875 26.3986 4.71375 26.1161 4.14875C25.8214 3.56095 25.4064 3.04171 24.8979 2.62479C24.3895 2.20786 23.799 1.90257 23.1648 1.72875C22.5536 1.5625 21.8673 1.5625 20.8648 1.5625H9.13359ZM22.8348 15.9375C23.4711 15.9386 24.101 15.812 24.6873 15.565V17.5C24.6873 19.8837 24.6848 21.5775 24.5123 22.8625C24.3436 24.1188 24.0261 24.8438 23.4973 25.3725C22.9686 25.9013 22.2436 26.2188 20.9848 26.3875C20.3467 26.4659 19.7051 26.5134 19.0623 26.53V23.085C19.0623 22.535 19.0623 22.06 19.0273 21.6725C18.9898 21.26 18.9073 20.8525 18.6848 20.4688C18.4383 20.0411 18.0835 19.6858 17.6561 19.4387C17.2723 19.2175 16.8648 19.135 16.4523 19.0975C16.0648 19.0625 15.5898 19.0625 15.0398 19.0625H14.9586C14.4086 19.0625 13.9348 19.0625 13.5461 19.0975C13.1336 19.135 12.7273 19.2175 12.3436 19.4387C11.9158 19.6857 11.5605 20.0409 11.3136 20.4688C11.0923 20.8525 11.0098 21.26 10.9723 21.6712C10.9373 22.0613 10.9373 22.535 10.9373 23.0837V26.53C10.2938 26.5135 9.65134 26.466 9.01234 26.3875C7.75609 26.2188 7.03109 25.9013 6.50234 25.3725C5.97359 24.8438 5.65609 24.1187 5.48734 22.8612C5.31359 21.5775 5.31234 19.8837 5.31234 17.5V15.565C6.31132 15.9863 7.42417 16.0542 8.46694 15.7573C9.50972 15.4605 10.42 14.8168 11.0473 13.9325C11.5009 14.5552 12.0955 15.0616 12.7826 15.4101C13.4696 15.7586 14.2295 15.9394 14.9998 15.9375C15.7702 15.9394 16.5301 15.7586 17.2171 15.4101C17.9041 15.0616 18.4988 14.5552 18.9523 13.9325C19.3918 14.5531 19.9737 15.0591 20.6493 15.408C21.325 15.7569 22.0745 15.9385 22.8348 15.9375ZM12.8123 26.56C13.2973 26.5617 13.8182 26.5625 14.3748 26.5625H15.6248C16.1815 26.5625 16.7023 26.5617 17.1873 26.56V23.125C17.1873 22.5238 17.1861 22.135 17.1598 21.8412C17.1348 21.56 17.0911 21.4575 17.0611 21.4062C16.9789 21.2641 16.8608 21.1459 16.7186 21.0637C16.6673 21.0338 16.5648 20.9912 16.2836 20.965C15.8562 20.9389 15.428 20.9298 14.9998 20.9375C14.3986 20.9375 14.0098 20.9375 13.7161 20.965C13.4336 20.99 13.3323 21.0338 13.2811 21.0637C13.1384 21.1458 13.0199 21.2639 12.9373 21.4062C12.9086 21.4562 12.8648 21.56 12.8398 21.8412C12.8136 22.135 12.8123 22.5238 12.8123 23.125V26.56ZM10.8373 3.4375H9.27234C8.07984 3.4375 7.66609 3.44625 7.33109 3.5375C6.95081 3.6418 6.59671 3.8249 6.29178 4.07492C5.98685 4.32494 5.7379 4.63629 5.56109 4.98875C5.40484 5.3 5.31609 5.7025 5.08234 6.8725L4.33484 10.61C4.25517 10.9946 4.25479 11.3913 4.33371 11.776C4.41263 12.1607 4.5692 12.5253 4.79384 12.8474C5.01848 13.1696 5.30647 13.4425 5.6402 13.6495C5.97392 13.8565 6.34637 13.9933 6.73477 14.0514C7.12316 14.1096 7.51933 14.0879 7.89905 13.9877C8.27877 13.8875 8.63406 13.7109 8.94319 13.4687C9.25233 13.2264 9.5088 12.9237 9.69693 12.579C9.88506 12.2343 10.0009 11.8548 10.0373 11.4637L10.1236 10.6062L10.1286 10.5538L10.8373 3.4375ZM11.9886 10.7812L12.7236 3.4375H17.2761L18.0061 10.74C18.047 11.1578 18.0004 11.5796 17.8692 11.9784C17.738 12.3772 17.5251 12.7443 17.2442 13.0563C16.9632 13.3683 16.6203 13.6182 16.2373 13.7903C15.8544 13.9623 15.4398 14.0527 15.0199 14.0556C14.6001 14.0584 14.1843 13.9738 13.799 13.807C13.4137 13.6402 13.0674 13.395 12.7822 13.0869C12.497 12.7788 12.2791 12.4147 12.1425 12.0177C12.0058 11.6207 11.9534 11.1996 11.9886 10.7812ZM22.6686 3.5375C22.3336 3.44625 21.9198 3.4375 20.7273 3.4375H19.1598L19.9636 11.4625C20.0012 11.8524 20.1178 12.2306 20.3063 12.5739C20.4948 12.9173 20.7512 13.2188 21.0599 13.4599C21.3686 13.701 21.7231 13.8767 22.102 13.9764C22.4808 14.0761 22.8759 14.0977 23.2633 14.0397C23.6507 13.9818 24.0223 13.8456 24.3554 13.6395C24.6885 13.4334 24.9761 13.1616 25.2008 12.8407C25.4254 12.5198 25.5825 12.1566 25.6622 11.7731C25.742 11.3896 25.7429 10.9939 25.6648 10.61L24.9186 6.8725C24.6836 5.7025 24.5948 5.3 24.4398 4.98875C24.2629 4.63615 24.0138 4.32473 23.7086 4.0747C23.4034 3.82468 23.0491 3.64165 22.6686 3.5375Z" fill="white"/>
</svg>
