<svg width="50" height="50" viewBox="0 0 50 50" fill="none" xmlns="http://www.w3.org/2000/svg">
<path d="M18.5125 14.9374C18.8937 14.9478 19.3167 14.9687 19.7187 15.8603C19.9854 16.4541 20.4333 17.5478 20.8 18.4395C21.0854 19.1333 21.3187 19.7041 21.3771 19.8208C21.5104 20.0874 21.5937 20.3937 21.4187 20.7541L21.3604 20.8749C21.241 21.1548 21.0794 21.4148 20.8812 21.6458C20.7805 21.7626 20.6812 21.8807 20.5833 21.9999C20.4062 22.2166 20.2292 22.4291 20.0792 22.5791C19.8104 22.8458 19.5333 23.1333 19.8417 23.6666C20.1521 24.1999 21.2333 25.9541 22.8312 27.3687C24.0008 28.4216 25.3416 29.2671 26.7958 29.8687C26.9417 29.9312 27.0604 29.9833 27.15 30.027C27.6854 30.2937 28.0042 30.252 28.3125 29.8937C28.6229 29.5333 29.6521 28.3333 30.0146 27.7999C30.3646 27.2666 30.7229 27.3499 31.2187 27.5333C31.7146 27.7187 34.3521 29.0124 34.8875 29.277L35.1854 29.4228C35.5583 29.5999 35.8104 29.7228 35.9187 29.902C36.0521 30.1291 36.0521 31.1937 35.6104 32.4478C35.1562 33.6978 32.9708 34.8978 31.9812 34.9895L31.7 35.0228C30.7917 35.1312 29.6417 35.2728 25.5417 33.6583C20.4875 31.6708 17.1521 26.7416 16.4792 25.7437C16.4432 25.6903 16.4064 25.6375 16.3687 25.5853L16.3562 25.5687C16.05 25.1583 14.1729 22.6478 14.1729 20.0562C14.1729 17.577 15.3958 16.2853 15.9521 15.6978L16.05 15.5937C16.23 15.3903 16.45 15.2261 16.6963 15.1114C16.9425 14.9967 17.2097 14.934 17.4812 14.927C17.8417 14.927 18.2042 14.927 18.5125 14.9374Z" fill="black"/>
<path fill-rule="evenodd" clip-rule="evenodd" d="M4.55001 44.4395C4.51075 44.5808 4.50944 44.7298 4.54622 44.8717C4.58299 45.0136 4.65655 45.1433 4.75946 45.2477C4.86237 45.3521 4.991 45.4275 5.13236 45.4663C5.27372 45.5051 5.42281 45.5059 5.56459 45.4687L15.1625 42.9604C18.2077 44.6098 21.616 45.474 25.0792 45.4749H25.0875C36.5167 45.4749 45.8333 36.2124 45.8333 24.8249C45.8406 22.1094 45.3076 19.4195 44.2654 16.9119C43.2231 14.4043 41.6925 12.1291 39.7625 10.2187C37.8362 8.29219 35.548 6.76568 33.0294 5.72701C30.5109 4.68835 27.8118 4.15804 25.0875 4.16661C13.6583 4.16661 4.34167 13.4291 4.34167 24.8145C4.34167 28.4374 5.29584 31.9958 7.11251 35.1354L4.55001 44.4395ZM10.1271 35.9645C10.2372 35.5647 10.2667 35.1469 10.2138 34.7356C10.1608 34.3243 10.0266 33.9276 9.81876 33.5687C8.27737 30.9087 7.46597 27.8888 7.46667 24.8145C7.46667 15.1687 15.3688 7.29161 25.0875 7.29161C29.8167 7.29161 34.2292 9.11869 37.5583 12.4333C39.1965 14.0534 40.4956 15.9835 41.3799 18.111C42.2641 20.2386 42.7157 22.521 42.7083 24.8249C42.7083 34.4708 34.8063 42.3499 25.0875 42.3499H25.0771C22.1348 42.3484 19.2392 41.6138 16.6521 40.2124C15.9548 39.8349 15.14 39.7366 14.3729 39.9374L8.61876 41.4395L10.1271 35.9645Z" fill="black"/>
</svg>
